<svg width="60" height="60" viewBox="0 0 60 60" fill="none" xmlns="http://www.w3.org/2000/svg">
<g clip-path="url(#clip0_306_28)">
<path d="M43.425 30.975L30 41.775L16.6 30.575C16.3472 30.3649 16.0555 30.2066 15.7416 30.1092C15.4276 30.0119 15.0975 29.9773 14.7702 30.0075C14.4429 30.0376 14.1247 30.132 13.8338 30.2851C13.543 30.4383 13.2851 30.6472 13.075 30.9C12.8649 31.1528 12.7066 31.4445 12.6092 31.7585C12.5119 32.0724 12.4773 32.4025 12.5075 32.7298C12.5376 33.0571 12.632 33.3753 12.7851 33.6662C12.9383 33.957 13.1472 34.2149 13.4 34.425L28.4 46.925C28.8473 47.2927 29.4084 47.4937 29.9875 47.4937C30.5666 47.4937 31.1277 47.2927 31.575 46.925L46.575 34.85C46.8318 34.6437 47.0453 34.3887 47.2033 34.0996C47.3612 33.8105 47.4605 33.493 47.4953 33.1655C47.5301 32.8379 47.4999 32.5067 47.4063 32.1908C47.3128 31.875 47.1577 31.5807 46.95 31.325C46.7419 31.07 46.4855 30.8587 46.1955 30.703C45.9056 30.5474 45.5877 30.4505 45.2602 30.418C44.9327 30.3855 44.602 30.4179 44.2871 30.5135C43.9721 30.6091 43.6792 30.7659 43.425 30.975Z" fill="#DB6C06"/>
<path d="M28.4 29.425C28.8473 29.7927 29.4084 29.9937 29.9875 29.9937C30.5665 29.9937 31.1277 29.7927 31.575 29.425L46.575 17.35C46.8318 17.1437 47.0453 16.8887 47.2033 16.5996C47.3612 16.3105 47.4604 15.993 47.4953 15.6654C47.5301 15.3379 47.4999 15.0066 47.4063 14.6908C47.3127 14.3749 47.1577 14.0807 46.95 13.825C46.7437 13.5682 46.4887 13.3547 46.1996 13.1967C45.9105 13.0388 45.593 12.9395 45.2654 12.9047C44.9379 12.8699 44.6066 12.9001 44.2908 12.9937C43.9749 13.0872 43.6807 13.2423 43.425 13.45L30 24.275L16.6 13.075C16.0894 12.6506 15.4312 12.4465 14.7702 12.5074C14.1091 12.5684 13.4993 12.8894 13.075 13.4C12.6506 13.9105 12.4465 14.5687 12.5074 15.2298C12.5684 15.8909 12.8894 16.5006 13.4 16.925L28.4 29.425Z" fill="#DB6C06"/>
</g>
<defs>
<clipPath id="clip0_306_28">
<rect width="60" height="60" fill="white"/>
</clipPath>
</defs>
</svg>
